<svg width="279" height="58" viewBox="0 0 279 58" fill="none" xmlns="http://www.w3.org/2000/svg">
<g filter="url(#filter0_d_304_107)">
<path d="M265.6 0H13.4C7.65624 0 3 2.5868 3 5.77778V46.2222C3 49.4132 7.65624 52 13.4 52H265.6C271.344 52 276 49.4132 276 46.2222V5.77778C276 2.5868 271.344 0 265.6 0Z" fill="#4CAF50"/>
</g>
<path d="M93.3984 31.1602V33H80.4844V31.1602H93.3984ZM80.8477 31.1602V37.1953H78.6094L78.5977 31.1602H80.8477ZM95.3672 31.1602L95.3438 37.1836H93.1055V31.1602H95.3672ZM91.1836 15.9375V17.7891H83.707V15.9375H91.1836ZM93.1289 15.9375V33H90.8789V15.9375H93.1289ZM82.9336 15.9375H85.1953L84.8438 22.8047C84.7969 23.8359 84.6992 24.7891 84.5508 25.6641C84.4023 26.5312 84.2188 27.3242 84 28.043C83.7812 28.7617 83.5312 29.4062 83.25 29.9766C82.9688 30.5391 82.668 31.0273 82.3477 31.4414C82.0273 31.8477 81.6914 32.1836 81.3398 32.4492C80.9961 32.707 80.6484 32.8906 80.2969 33H79.2656V31.1602H79.9922C80.1953 30.9414 80.4258 30.625 80.6836 30.2109C80.9492 29.7969 81.2109 29.2617 81.4688 28.6055C81.7344 27.9414 81.9648 27.1328 82.1602 26.1797C82.3633 25.2266 82.5 24.1016 82.5703 22.8047L82.9336 15.9375ZM97.125 26.8008V26.5312C97.125 25.6172 97.2578 24.7695 97.5234 23.9883C97.7891 23.1992 98.1719 22.5156 98.6719 21.9375C99.1719 21.3516 99.7773 20.8984 100.488 20.5781C101.199 20.25 101.996 20.0859 102.879 20.0859C103.77 20.0859 104.57 20.25 105.281 20.5781C106 20.8984 106.609 21.3516 107.109 21.9375C107.617 22.5156 108.004 23.1992 108.27 23.9883C108.535 24.7695 108.668 25.6172 108.668 26.5312V26.8008C108.668 27.7148 108.535 28.5625 108.27 29.3438C108.004 30.125 107.617 30.8086 107.109 31.3945C106.609 31.9727 106.004 32.4258 105.293 32.7539C104.59 33.0742 103.793 33.2344 102.902 33.2344C102.012 33.2344 101.211 33.0742 100.5 32.7539C99.7891 32.4258 99.1797 31.9727 98.6719 31.3945C98.1719 30.8086 97.7891 30.125 97.5234 29.3438C97.2578 28.5625 97.125 27.7148 97.125 26.8008ZM99.293 26.5312V26.8008C99.293 27.4336 99.3672 28.0312 99.5156 28.5938C99.6641 29.1484 99.8867 29.6406 100.184 30.0703C100.488 30.5 100.867 30.8398 101.32 31.0898C101.773 31.332 102.301 31.4531 102.902 31.4531C103.496 31.4531 104.016 31.332 104.461 31.0898C104.914 30.8398 105.289 30.5 105.586 30.0703C105.883 29.6406 106.105 29.1484 106.254 28.5938C106.41 28.0312 106.488 27.4336 106.488 26.8008V26.5312C106.488 25.9062 106.41 25.3164 106.254 24.7617C106.105 24.1992 105.879 23.7031 105.574 23.2734C105.277 22.8359 104.902 22.4922 104.449 22.2422C104.004 21.9922 103.48 21.8672 102.879 21.8672C102.285 21.8672 101.762 21.9922 101.309 22.2422C100.863 22.4922 100.488 22.8359 100.184 23.2734C99.8867 23.7031 99.6641 24.1992 99.5156 24.7617C99.3672 25.3164 99.293 25.9062 99.293 26.5312ZM119.52 14.8008H121.301C121.301 15.5664 121.184 16.1758 120.949 16.6289C120.715 17.0742 120.395 17.418 119.988 17.6602C119.59 17.9023 119.137 18.0859 118.629 18.2109C118.129 18.3359 117.609 18.457 117.07 18.5742C116.398 18.7148 115.773 18.9375 115.195 19.2422C114.625 19.5391 114.133 19.9609 113.719 20.5078C113.312 21.0547 113.012 21.7656 112.816 22.6406C112.629 23.5156 112.578 24.5977 112.664 25.8867V26.9648H110.883V25.8867C110.883 24.4414 111.02 23.1797 111.293 22.1016C111.574 21.0234 111.969 20.1133 112.477 19.3711C112.984 18.6289 113.586 18.0391 114.281 17.6016C114.984 17.1641 115.758 16.8633 116.602 16.6992C117.211 16.582 117.734 16.457 118.172 16.3242C118.609 16.1836 118.941 15.9961 119.168 15.7617C119.402 15.5273 119.52 15.207 119.52 14.8008ZM116.953 21.0469C117.781 21.0469 118.52 21.1914 119.168 21.4805C119.816 21.7695 120.367 22.1719 120.82 22.6875C121.273 23.2031 121.617 23.8125 121.852 24.5156C122.094 25.2109 122.215 25.9688 122.215 26.7891V27.0469C122.215 27.9297 122.086 28.75 121.828 29.5078C121.578 30.2578 121.207 30.9141 120.715 31.4766C120.23 32.0312 119.637 32.4648 118.934 32.7773C118.238 33.0898 117.445 33.2461 116.555 33.2461C115.664 33.2461 114.867 33.0898 114.164 32.7773C113.469 32.4648 112.875 32.0312 112.383 31.4766C111.891 30.9141 111.516 30.2578 111.258 29.5078C111.008 28.75 110.883 27.9297 110.883 27.0469V26.7891C110.883 26.5938 110.918 26.4023 110.988 26.2148C111.059 26.0273 111.145 25.8359 111.246 25.6406C111.355 25.4453 111.453 25.2383 111.539 25.0195C111.828 24.3164 112.223 23.6641 112.723 23.0625C113.23 22.4609 113.836 21.9766 114.539 21.6094C115.25 21.2344 116.055 21.0469 116.953 21.0469ZM116.531 22.8164C115.734 22.8164 115.078 23 114.562 23.3672C114.055 23.7344 113.676 24.2227 113.426 24.832C113.176 25.4336 113.051 26.0859 113.051 26.7891V27.0469C113.051 27.6406 113.121 28.2031 113.262 28.7344C113.402 29.2656 113.613 29.7383 113.895 30.1523C114.184 30.5586 114.547 30.8789 114.984 31.1133C115.43 31.3477 115.953 31.4648 116.555 31.4648C117.156 31.4648 117.676 31.3477 118.113 31.1133C118.551 30.8789 118.91 30.5586 119.191 30.1523C119.473 29.7383 119.684 29.2656 119.824 28.7344C119.965 28.2031 120.035 27.6406 120.035 27.0469V26.7891C120.035 26.2578 119.965 25.7539 119.824 25.2773C119.684 24.8008 119.469 24.3789 119.18 24.0117C118.898 23.6445 118.535 23.3555 118.09 23.1445C117.652 22.9258 117.133 22.8164 116.531 22.8164ZM132.152 30.832V24.3047C132.152 23.8047 132.051 23.3711 131.848 23.0039C131.652 22.6289 131.355 22.3398 130.957 22.1367C130.559 21.9336 130.066 21.832 129.48 21.832C128.934 21.832 128.453 21.9258 128.039 22.1133C127.633 22.3008 127.312 22.5469 127.078 22.8516C126.852 23.1562 126.738 23.4844 126.738 23.8359H124.57C124.57 23.3828 124.688 22.9336 124.922 22.4883C125.156 22.043 125.492 21.6406 125.93 21.2812C126.375 20.9141 126.906 20.625 127.523 20.4141C128.148 20.1953 128.844 20.0859 129.609 20.0859C130.531 20.0859 131.344 20.2422 132.047 20.5547C132.758 20.8672 133.312 21.3398 133.711 21.9727C134.117 22.5977 134.32 23.3828 134.32 24.3281V30.2344C134.32 30.6562 134.355 31.1055 134.426 31.582C134.504 32.0586 134.617 32.4688 134.766 32.8125V33H132.504C132.395 32.75 132.309 32.418 132.246 32.0039C132.184 31.582 132.152 31.1914 132.152 30.832ZM132.527 25.3125L132.551 26.8359H130.359C129.742 26.8359 129.191 26.8867 128.707 26.9883C128.223 27.082 127.816 27.2266 127.488 27.4219C127.16 27.6172 126.91 27.8633 126.738 28.1602C126.566 28.4492 126.48 28.7891 126.48 29.1797C126.48 29.5781 126.57 29.9414 126.75 30.2695C126.93 30.5977 127.199 30.8594 127.559 31.0547C127.926 31.2422 128.375 31.3359 128.906 31.3359C129.57 31.3359 130.156 31.1953 130.664 30.9141C131.172 30.6328 131.574 30.2891 131.871 29.8828C132.176 29.4766 132.34 29.082 132.363 28.6992L133.289 29.7422C133.234 30.0703 133.086 30.4336 132.844 30.832C132.602 31.2305 132.277 31.6133 131.871 31.9805C131.473 32.3398 130.996 32.6406 130.441 32.8828C129.895 33.1172 129.277 33.2344 128.59 33.2344C127.73 33.2344 126.977 33.0664 126.328 32.7305C125.688 32.3945 125.188 31.9453 124.828 31.3828C124.477 30.8125 124.301 30.1758 124.301 29.4727C124.301 28.793 124.434 28.1953 124.699 27.6797C124.965 27.1562 125.348 26.7227 125.848 26.3789C126.348 26.0273 126.949 25.7617 127.652 25.582C128.355 25.4023 129.141 25.3125 130.008 25.3125H132.527ZM143.684 27.4219H139.523L139.5 25.6875H142.898C143.57 25.6875 144.129 25.6211 144.574 25.4883C145.027 25.3555 145.367 25.1562 145.594 24.8906C145.82 24.625 145.934 24.2969 145.934 23.9062C145.934 23.6016 145.867 23.3359 145.734 23.1094C145.609 22.875 145.418 22.6836 145.16 22.5352C144.902 22.3789 144.582 22.2656 144.199 22.1953C143.824 22.1172 143.383 22.0781 142.875 22.0781H140.098V33H137.93V20.3203H142.875C143.68 20.3203 144.402 20.3906 145.043 20.5312C145.691 20.6719 146.242 20.8867 146.695 21.1758C147.156 21.457 147.508 21.8164 147.75 22.2539C147.992 22.6914 148.113 23.207 148.113 23.8008C148.113 24.1836 148.035 24.5469 147.879 24.8906C147.723 25.2344 147.492 25.5391 147.188 25.8047C146.883 26.0703 146.508 26.2891 146.062 26.4609C145.617 26.625 145.105 26.7305 144.527 26.7773L143.684 27.4219ZM143.684 33H138.738L139.816 31.2422H143.684C144.285 31.2422 144.785 31.168 145.184 31.0195C145.582 30.8633 145.879 30.6445 146.074 30.3633C146.277 30.0742 146.379 29.7305 146.379 29.332C146.379 28.9336 146.277 28.5938 146.074 28.3125C145.879 28.0234 145.582 27.8047 145.184 27.6562C144.785 27.5 144.285 27.4219 143.684 27.4219H140.391L140.414 25.6875H144.527L145.312 26.3438C146.008 26.3984 146.598 26.5703 147.082 26.8594C147.566 27.1484 147.934 27.5156 148.184 27.9609C148.434 28.3984 148.559 28.875 148.559 29.3906C148.559 29.9844 148.445 30.5078 148.219 30.9609C148 31.4141 147.68 31.793 147.258 32.0977C146.836 32.3945 146.324 32.6211 145.723 32.7773C145.121 32.9258 144.441 33 143.684 33ZM153.809 29.5664L159.656 20.3203H161.836V33H159.656V23.7539L153.809 33H151.652V20.3203H153.809V29.5664ZM170.484 20.3203V33H168.305V20.3203H170.484ZM174.738 20.3203V22.0781H164.133V20.3203H174.738ZM178.652 24.6797H182.461C183.484 24.6797 184.348 24.8594 185.051 25.2188C185.754 25.5703 186.285 26.0586 186.645 26.6836C187.012 27.3008 187.195 28.0039 187.195 28.793C187.195 29.3789 187.094 29.9297 186.891 30.4453C186.688 30.9531 186.383 31.3984 185.977 31.7812C185.578 32.1641 185.082 32.4648 184.488 32.6836C183.902 32.8945 183.227 33 182.461 33H177.07V20.3203H179.238V31.2188H182.461C183.086 31.2188 183.586 31.1055 183.961 30.8789C184.336 30.6523 184.605 30.3594 184.77 30C184.934 29.6406 185.016 29.2656 185.016 28.875C185.016 28.4922 184.934 28.1172 184.77 27.75C184.605 27.3828 184.336 27.0781 183.961 26.8359C183.586 26.5859 183.086 26.4609 182.461 26.4609H178.652V24.6797Z" fill="white"/>
<defs>
<filter id="filter0_d_304_107" x="0" y="0" width="279" height="58" filterUnits="userSpaceOnUse" color-interpolation-filters="sRGB">
<feFlood flood-opacity="0" result="BackgroundImageFix"/>
<feColorMatrix in="SourceAlpha" type="matrix" values="0 0 0 0 0 0 0 0 0 0 0 0 0 0 0 0 0 0 127 0" result="hardAlpha"/>
<feOffset dy="3"/>
<feGaussianBlur stdDeviation="1.5"/>
<feColorMatrix type="matrix" values="0 0 0 0 0 0 0 0 0 0 0 0 0 0 0 0 0 0 0.161 0"/>
<feBlend mode="normal" in2="BackgroundImageFix" result="effect1_dropShadow_304_107"/>
<feBlend mode="normal" in="SourceGraphic" in2="effect1_dropShadow_304_107" result="shape"/>
</filter>
</defs>
</svg>
