<svg width="183" height="23" viewBox="0 0 183 23" fill="none" xmlns="http://www.w3.org/2000/svg">
<path d="M16.9971 22H12.4707V4.36328H4.58984V22H0.0488281V0.583984H16.9971V22ZM25.6104 13.7822C25.6104 15.4033 25.874 16.6289 26.4014 17.459C26.9385 18.2891 27.8076 18.7041 29.0088 18.7041C30.2002 18.7041 31.0547 18.2939 31.5723 17.4736C32.0996 16.6436 32.3633 15.4131 32.3633 13.7822C32.3633 12.1611 32.0996 10.9453 31.5723 10.1348C31.0449 9.32422 30.1807 8.91895 28.9795 8.91895C27.7881 8.91895 26.9287 9.32422 26.4014 10.1348C25.874 10.9355 25.6104 12.1514 25.6104 13.7822ZM36.9336 13.7822C36.9336 16.4482 36.2305 18.5332 34.8242 20.0371C33.418 21.541 31.46 22.293 28.9502 22.293C27.3779 22.293 25.9912 21.9512 24.79 21.2676C23.5889 20.5742 22.666 19.583 22.0215 18.2939C21.377 17.0049 21.0547 15.501 21.0547 13.7822C21.0547 11.1064 21.7529 9.02637 23.1494 7.54199C24.5459 6.05762 26.5088 5.31543 29.0381 5.31543C30.6104 5.31543 31.9971 5.65723 33.1982 6.34082C34.3994 7.02441 35.3223 8.00586 35.9668 9.28516C36.6113 10.5645 36.9336 12.0635 36.9336 13.7822ZM47.2754 22.293C42.1777 22.293 39.6289 19.4951 39.6289 13.8994C39.6289 11.1162 40.3223 8.99219 41.709 7.52734C43.0957 6.05273 45.083 5.31543 47.6709 5.31543C49.5654 5.31543 51.2646 5.68652 52.7686 6.42871L51.4502 9.88574C50.7471 9.60254 50.0928 9.37305 49.4873 9.19727C48.8818 9.01172 48.2764 8.91895 47.6709 8.91895C45.3467 8.91895 44.1846 10.5693 44.1846 13.8701C44.1846 17.0732 45.3467 18.6748 47.6709 18.6748C48.5303 18.6748 49.3262 18.5625 50.0586 18.3379C50.791 18.1035 51.5234 17.7422 52.2559 17.2539V21.0771C51.5332 21.5361 50.8008 21.8535 50.0586 22.0293C49.3262 22.2051 48.3984 22.293 47.2754 22.293ZM62.8467 8.49414C61.8994 8.49414 61.1572 8.79688 60.6201 9.40234C60.083 9.99805 59.7754 10.8477 59.6973 11.9512H65.9668C65.9473 10.8477 65.6592 9.99805 65.1025 9.40234C64.5459 8.79688 63.7939 8.49414 62.8467 8.49414ZM63.4766 22.293C60.8398 22.293 58.7793 21.5654 57.2949 20.1104C55.8105 18.6553 55.0684 16.5947 55.0684 13.9287C55.0684 11.1846 55.752 9.06543 57.1191 7.57129C58.4961 6.06738 60.3955 5.31543 62.8174 5.31543C65.1318 5.31543 66.9336 5.97461 68.2227 7.29297C69.5117 8.61133 70.1562 10.4326 70.1562 12.7568V14.9248H59.5947C59.6436 16.1943 60.0195 17.1855 60.7227 17.8984C61.4258 18.6113 62.4121 18.9678 63.6816 18.9678C64.668 18.9678 65.6006 18.8652 66.4795 18.6602C67.3584 18.4551 68.2764 18.1279 69.2334 17.6787V21.1357C68.4521 21.5264 67.6172 21.8145 66.7285 22C65.8398 22.1953 64.7559 22.293 63.4766 22.293ZM87.3389 5.62305V8.97754H81.9775V22H77.5098V8.97754H72.1338V5.62305H87.3389ZM94.7217 5.62305V12.0977C94.7217 12.7812 94.6094 14.4512 94.3848 17.1074L101.943 5.62305H107.319V22H102.998V15.4668C102.998 14.3047 103.096 12.6641 103.291 10.5449L95.7617 22H90.4004V5.62305H94.7217ZM125.571 5.62305V8.97754H120.21V22H115.742V8.97754H110.366V5.62305H125.571ZM135.415 8.49414C134.468 8.49414 133.726 8.79688 133.188 9.40234C132.651 9.99805 132.344 10.8477 132.266 11.9512H138.535C138.516 10.8477 138.228 9.99805 137.671 9.40234C137.114 8.79688 136.362 8.49414 135.415 8.49414ZM136.045 22.293C133.408 22.293 131.348 21.5654 129.863 20.1104C128.379 18.6553 127.637 16.5947 127.637 13.9287C127.637 11.1846 128.32 9.06543 129.688 7.57129C131.064 6.06738 132.964 5.31543 135.386 5.31543C137.7 5.31543 139.502 5.97461 140.791 7.29297C142.08 8.61133 142.725 10.4326 142.725 12.7568V14.9248H132.163C132.212 16.1943 132.588 17.1855 133.291 17.8984C133.994 18.6113 134.98 18.9678 136.25 18.9678C137.236 18.9678 138.169 18.8652 139.048 18.6602C139.927 18.4551 140.845 18.1279 141.802 17.6787V21.1357C141.021 21.5264 140.186 21.8145 139.297 22C138.408 22.1953 137.324 22.293 136.045 22.293ZM161.021 22H156.553V8.97754H152.437C152.124 12.6396 151.743 15.374 151.294 17.1807C150.845 18.9775 150.244 20.2812 149.492 21.0918C148.75 21.8926 147.773 22.293 146.562 22.293C145.527 22.293 144.678 22.1367 144.014 21.8242V18.25C144.492 18.4453 144.971 18.543 145.449 18.543C146.006 18.543 146.47 18.1426 146.841 17.3418C147.222 16.541 147.559 15.208 147.852 13.3428C148.154 11.4678 148.413 8.89453 148.628 5.62305H161.021V22ZM170.044 5.62305V12.0977C170.044 12.7812 169.932 14.4512 169.707 17.1074L177.266 5.62305H182.642V22H178.32V15.4668C178.32 14.3047 178.418 12.6641 178.613 10.5449L171.084 22H165.723V5.62305H170.044Z" fill="#4E3000"/>
</svg>
