<svg width="1948" height="36" viewBox="0 0 1948 36" fill="none" xmlns="http://www.w3.org/2000/svg">
<path d="M0 34H1948" stroke="#E9E9E9" stroke-width="4"/>
<path d="M16.1445 21H13.8008V14.5645H7.21875V21H4.88477V6.72266H7.21875V12.5625H13.8008V6.72266H16.1445V21ZM29.2402 15.5801C29.2402 17.3444 28.7878 18.7214 27.8828 19.7109C26.9779 20.7005 25.7181 21.1953 24.1035 21.1953C23.0944 21.1953 22.2025 20.9674 21.4277 20.5117C20.653 20.056 20.0573 19.4017 19.6406 18.5488C19.224 17.696 19.0156 16.7064 19.0156 15.5801C19.0156 13.8288 19.4648 12.4616 20.3633 11.4785C21.2617 10.4954 22.528 10.0039 24.1621 10.0039C25.7246 10.0039 26.9616 10.5085 27.873 11.5176C28.7845 12.5202 29.2402 13.8743 29.2402 15.5801ZM21.3789 15.5801C21.3789 18.0736 22.3001 19.3203 24.1426 19.3203C25.9655 19.3203 26.877 18.0736 26.877 15.5801C26.877 13.1126 25.959 11.8789 24.123 11.8789C23.1595 11.8789 22.4596 12.1979 22.0234 12.8359C21.5938 13.474 21.3789 14.3887 21.3789 15.5801ZM38.0879 18.8027L38.2148 18.334C38.4818 17.3639 38.7129 16.6185 38.9082 16.0977L41.3301 10.1992H44.3867V21H42.2676V12.2793L42.0918 12.8652C41.7988 13.9134 41.5514 14.6849 41.3496 15.1797L38.9863 21H37.248L34.8848 15.1406C34.5592 14.2943 34.2598 13.3405 33.9863 12.2793V21H31.8867V10.1992H34.9238L37.2676 15.9219C37.4759 16.4492 37.7493 17.4095 38.0879 18.8027ZM52.3848 21.1953C50.7051 21.1953 49.39 20.707 48.4395 19.7305C47.4954 18.7474 47.0234 17.3965 47.0234 15.6777C47.0234 13.9134 47.4629 12.5267 48.3418 11.5176C49.2207 10.5085 50.4284 10.0039 51.9648 10.0039C53.3906 10.0039 54.5169 10.4368 55.3438 11.3027C56.1706 12.1686 56.584 13.36 56.584 14.877V16.1172H49.3867C49.4193 17.1654 49.7025 17.9727 50.2363 18.5391C50.7702 19.099 51.5221 19.3789 52.4922 19.3789C53.1302 19.3789 53.7227 19.3203 54.2695 19.2031C54.8229 19.0794 55.4154 18.8776 56.0469 18.5977V20.4629C55.487 20.7298 54.9206 20.9186 54.3477 21.0293C53.7747 21.14 53.1204 21.1953 52.3848 21.1953ZM51.9648 11.7422C51.2357 11.7422 50.6497 11.9733 50.207 12.4355C49.7708 12.8978 49.5104 13.5716 49.4258 14.457H54.3281C54.3151 13.5651 54.1003 12.8913 53.6836 12.4355C53.2669 11.9733 52.694 11.7422 51.9648 11.7422ZM64.6699 21.1953C63.3027 21.1953 62.2415 20.7038 61.4863 19.7207H61.3496C61.4408 20.6322 61.4863 21.1855 61.4863 21.3809V25.8047H59.1914V10.1992H61.0469C61.099 10.401 61.2064 10.8828 61.3691 11.6445H61.4863C62.2025 10.5508 63.2767 10.0039 64.709 10.0039C66.0566 10.0039 67.1048 10.4922 67.8535 11.4688C68.6087 12.4453 68.9863 13.8158 68.9863 15.5801C68.9863 17.3444 68.6022 18.7214 67.834 19.7109C67.0723 20.7005 66.0176 21.1953 64.6699 21.1953ZM64.1133 11.8789C63.2018 11.8789 62.5345 12.1458 62.1113 12.6797C61.6947 13.2135 61.4863 14.0664 61.4863 15.2383V15.5801C61.4863 16.8952 61.6947 17.849 62.1113 18.4414C62.528 19.0273 63.2083 19.3203 64.1523 19.3203C64.9466 19.3203 65.5586 18.9948 65.9883 18.3438C66.418 17.6927 66.6328 16.765 66.6328 15.5605C66.6328 14.3496 66.418 13.4349 65.9883 12.8164C65.5651 12.1914 64.9401 11.8789 64.1133 11.8789Z" fill="#4E3000"/>
<path d="M229.375 6.51758V8.27539C230.905 8.30794 232.122 8.56836 233.027 9.05664C233.939 9.53841 234.593 10.1732 234.99 10.9609C235.394 11.7487 235.596 12.6243 235.596 13.5879C235.596 14.2259 235.492 14.8607 235.283 15.4922C235.075 16.1237 234.733 16.6999 234.258 17.2207C233.783 17.7415 233.145 18.1615 232.344 18.4805C231.543 18.7995 230.553 18.972 229.375 18.998V21.1953H227.188V18.998C225.983 18.972 224.98 18.7962 224.18 18.4707C223.379 18.1452 222.741 17.722 222.266 17.2012C221.797 16.6738 221.462 16.0977 221.26 15.4727C221.064 14.8411 220.967 14.2161 220.967 13.5977C220.967 12.888 221.074 12.2174 221.289 11.5859C221.51 10.9544 221.865 10.3945 222.354 9.90625C222.842 9.41797 223.483 9.0306 224.277 8.74414C225.072 8.45768 226.042 8.30143 227.188 8.27539V6.51758H229.375ZM227.188 10.1602C226.217 10.1927 225.443 10.3555 224.863 10.6484C224.284 10.9349 223.867 11.3288 223.613 11.8301C223.359 12.3314 223.232 12.9141 223.232 13.5781C223.232 14.2878 223.372 14.903 223.652 15.4238C223.932 15.9447 224.365 16.3548 224.951 16.6543C225.537 16.9473 226.283 17.11 227.188 17.1426V10.1602ZM229.375 10.1602V17.1426C230.299 17.11 231.051 16.944 231.631 16.6445C232.217 16.3451 232.646 15.9349 232.92 15.4141C233.2 14.8867 233.34 14.2715 233.34 13.5684C233.34 12.8978 233.213 12.3151 232.959 11.8203C232.705 11.319 232.288 10.9251 231.709 10.6387C231.13 10.3522 230.352 10.1927 229.375 10.1602ZM238.467 6.72266H240.605V14.291C240.605 14.6165 240.602 14.9746 240.596 15.3652C240.589 15.7559 240.576 16.1367 240.557 16.5078C240.544 16.8789 240.531 17.2109 240.518 17.5039C240.505 17.7904 240.492 17.9987 240.479 18.1289H240.547L247.812 6.72266H250.537V21H248.418V13.4902C248.418 13.1387 248.424 12.7578 248.438 12.3477C248.451 11.9375 248.467 11.5404 248.486 11.1562C248.506 10.7721 248.525 10.4336 248.545 10.1406C248.564 9.84766 248.577 9.63932 248.584 9.51562H248.496L241.211 21H238.467V6.72266ZM266.973 13.8418C266.973 14.9421 266.833 15.9447 266.553 16.8496C266.279 17.748 265.866 18.5228 265.312 19.1738C264.759 19.8184 264.066 20.3164 263.232 20.668C262.399 21.0195 261.423 21.1953 260.303 21.1953C259.163 21.1953 258.174 21.0195 257.334 20.668C256.501 20.3164 255.807 19.8151 255.254 19.1641C254.707 18.513 254.297 17.735 254.023 16.8301C253.75 15.9251 253.613 14.9225 253.613 13.8223C253.613 12.3509 253.854 11.0684 254.336 9.97461C254.824 8.87435 255.563 8.02148 256.553 7.41602C257.549 6.80404 258.805 6.49805 260.322 6.49805C261.807 6.49805 263.04 6.80078 264.023 7.40625C265.007 8.01172 265.742 8.86458 266.23 9.96484C266.725 11.0586 266.973 12.3509 266.973 13.8418ZM256.074 13.8418C256.074 14.9421 256.224 15.8958 256.523 16.7031C256.823 17.5039 257.282 18.1224 257.9 18.5586C258.525 18.9883 259.326 19.2031 260.303 19.2031C261.286 19.2031 262.087 18.9883 262.705 18.5586C263.324 18.1224 263.779 17.5039 264.072 16.7031C264.365 15.8958 264.512 14.9421 264.512 13.8418C264.512 12.1686 264.176 10.86 263.506 9.91602C262.842 8.96549 261.781 8.49023 260.322 8.49023C259.346 8.49023 258.542 8.70508 257.91 9.13477C257.285 9.56445 256.823 10.1797 256.523 10.9805C256.224 11.7747 256.074 12.7285 256.074 13.8418Z" fill="#4E3000"/>
<path d="M742.812 21H740.088L734.219 13.7539V21H731.875V6.72266H734.219V13.6367L739.98 6.72266H742.539L736.777 13.6172L742.812 21ZM754.043 15.5703C754.043 16.4688 753.926 17.2663 753.691 17.9629C753.457 18.6595 753.115 19.2487 752.666 19.7305C752.217 20.2057 751.676 20.5703 751.045 20.8242C750.413 21.0716 749.701 21.1953 748.906 21.1953C748.164 21.1953 747.484 21.0716 746.865 20.8242C746.247 20.5703 745.71 20.2057 745.254 19.7305C744.805 19.2487 744.456 18.6595 744.209 17.9629C743.962 17.2663 743.838 16.4688 743.838 15.5703C743.838 14.3789 744.043 13.3698 744.453 12.543C744.87 11.7096 745.462 11.0749 746.23 10.6387C746.999 10.2025 747.913 9.98438 748.975 9.98438C749.971 9.98438 750.85 10.2025 751.611 10.6387C752.373 11.0749 752.969 11.7096 753.398 12.543C753.828 13.3763 754.043 14.3854 754.043 15.5703ZM746.201 15.5703C746.201 16.3581 746.296 17.0319 746.484 17.5918C746.68 18.1517 746.979 18.5814 747.383 18.8809C747.786 19.1738 748.307 19.3203 748.945 19.3203C749.583 19.3203 750.104 19.1738 750.508 18.8809C750.911 18.5814 751.208 18.1517 751.396 17.5918C751.585 17.0319 751.68 16.3581 751.68 15.5703C751.68 14.7826 751.585 14.1152 751.396 13.5684C751.208 13.015 750.911 12.5951 750.508 12.3086C750.104 12.0156 749.58 11.8691 748.936 11.8691C747.985 11.8691 747.292 12.1882 746.855 12.8262C746.419 13.4642 746.201 14.3789 746.201 15.5703ZM769.209 10.1895V21H767.08V14.8281C767.08 14.4245 767.09 14.0208 767.109 13.6172C767.129 13.2135 767.155 12.8294 767.188 12.4648H767.129L763.838 21H762.031L758.77 12.4551H758.701C758.734 12.8262 758.757 13.2103 758.77 13.6074C758.789 14.0046 758.799 14.4342 758.799 14.8965V21H756.67V10.1895H759.873L762.959 18.2656L766.094 10.1895H769.209ZM781.904 10.1895V21H779.59V12.0059H774.766V21H772.461V10.1895H781.904ZM789.434 9.98438C790.801 9.98438 791.833 10.2871 792.529 10.8926C793.232 11.498 793.584 12.4421 793.584 13.7246V21H791.953L791.514 19.4668H791.436C791.13 19.8574 790.814 20.1797 790.488 20.4336C790.163 20.6875 789.785 20.8763 789.355 21C788.932 21.1302 788.415 21.1953 787.803 21.1953C787.158 21.1953 786.582 21.0781 786.074 20.8438C785.566 20.6029 785.166 20.2383 784.873 19.75C784.58 19.2617 784.434 18.6432 784.434 17.8945C784.434 16.7812 784.847 15.9447 785.674 15.3848C786.507 14.8249 787.764 14.5156 789.443 14.457L791.318 14.3887V13.8223C791.318 13.0736 791.143 12.5397 790.791 12.2207C790.446 11.9017 789.958 11.7422 789.326 11.7422C788.786 11.7422 788.262 11.8203 787.754 11.9766C787.246 12.1328 786.751 12.3249 786.27 12.5527L785.527 10.9316C786.055 10.6517 786.654 10.4238 787.324 10.248C788.001 10.0723 788.704 9.98438 789.434 9.98438ZM791.309 15.834L789.912 15.8828C788.766 15.9219 787.962 16.1172 787.5 16.4688C787.038 16.8203 786.807 17.3021 786.807 17.9141C786.807 18.4479 786.966 18.8385 787.285 19.0859C787.604 19.3268 788.024 19.4473 788.545 19.4473C789.339 19.4473 789.997 19.2227 790.518 18.7734C791.045 18.3177 791.309 17.6504 791.309 16.7715V15.834ZM799.102 10.1895V14.5352H804.16V10.1895H806.465V21H804.16V16.332H799.102V21H796.797V10.1895H799.102ZM811.953 10.1895V15.707C811.953 15.8828 811.947 16.1074 811.934 16.3809C811.927 16.6478 811.914 16.9277 811.895 17.2207C811.875 17.5072 811.855 17.7708 811.836 18.0117C811.816 18.2526 811.8 18.4316 811.787 18.5488L817.227 10.1895H820.02V21H817.822V15.541C817.822 15.2546 817.829 14.9225 817.842 14.5449C817.861 14.1673 817.881 13.8027 817.9 13.4512C817.926 13.0996 817.943 12.8327 817.949 12.6504L812.529 21H809.746V10.1895H811.953ZM824.404 21H821.846L824.863 16.5859C824.453 16.4557 824.069 16.2637 823.711 16.0098C823.359 15.7493 823.073 15.4108 822.852 14.9941C822.63 14.571 822.52 14.0566 822.52 13.4512C822.52 12.3965 822.897 11.5892 823.652 11.0293C824.408 10.4694 825.394 10.1895 826.611 10.1895H831.514V21H829.219V16.8203H827.041L824.404 21ZM824.766 13.4707C824.766 14.0176 824.971 14.4342 825.381 14.7207C825.791 15.0007 826.351 15.1406 827.061 15.1406H829.219V11.918H826.729C826.045 11.918 825.547 12.0677 825.234 12.3672C824.922 12.6602 824.766 13.028 824.766 13.4707Z" fill="#4E3000"/>
<path d="M1141.4 6.72266V8.71484H1135.22V21H1132.88V6.72266H1141.4ZM1149.01 9.98438C1150.29 9.98438 1151.32 10.4531 1152.09 11.3906C1152.88 12.3281 1153.27 13.7214 1153.27 15.5703C1153.27 16.7943 1153.08 17.8262 1152.72 18.666C1152.36 19.4993 1151.86 20.1309 1151.21 20.5605C1150.56 20.9837 1149.81 21.1953 1148.95 21.1953C1148.4 21.1953 1147.93 21.1237 1147.52 20.9805C1147.12 20.8372 1146.77 20.6517 1146.49 20.4238C1146.2 20.1895 1145.96 19.9355 1145.77 19.6621H1145.63C1145.66 19.9225 1145.69 20.2122 1145.72 20.5312C1145.75 20.8438 1145.77 21.1302 1145.77 21.3906V25.7949H1143.46V10.1895H1145.34L1145.66 11.6836H1145.77C1145.97 11.3776 1146.21 11.0944 1146.5 10.834C1146.79 10.5736 1147.14 10.3685 1147.55 10.2188C1147.97 10.0625 1148.45 9.98438 1149.01 9.98438ZM1148.39 11.8594C1147.76 11.8594 1147.25 11.9863 1146.87 12.2402C1146.49 12.4876 1146.21 12.862 1146.04 13.3633C1145.87 13.8646 1145.78 14.4928 1145.77 15.248V15.5703C1145.77 16.3711 1145.85 17.0514 1146.01 17.6113C1146.18 18.1647 1146.46 18.5879 1146.84 18.8809C1147.23 19.1673 1147.76 19.3105 1148.42 19.3105C1148.98 19.3105 1149.44 19.1576 1149.81 18.8516C1150.18 18.5456 1150.46 18.1094 1150.64 17.543C1150.82 16.9766 1150.91 16.3092 1150.91 15.541C1150.91 14.3757 1150.7 13.4707 1150.29 12.8262C1149.88 12.1816 1149.25 11.8594 1148.39 11.8594ZM1154.29 10.1895H1156.79L1159.01 16.3613C1159.11 16.6413 1159.19 16.918 1159.27 17.1914C1159.36 17.4583 1159.43 17.722 1159.49 17.9824C1159.55 18.2428 1159.6 18.5033 1159.64 18.7637H1159.7C1159.77 18.4251 1159.86 18.0475 1159.97 17.6309C1160.1 17.2077 1160.24 16.7845 1160.38 16.3613L1162.51 10.1895H1164.98L1160.35 22.4844C1160.08 23.1875 1159.75 23.7865 1159.36 24.2812C1158.98 24.7826 1158.52 25.1602 1157.99 25.4141C1157.46 25.6745 1156.86 25.8047 1156.19 25.8047C1155.86 25.8047 1155.58 25.7852 1155.34 25.7461C1155.1 25.7135 1154.89 25.6777 1154.72 25.6387V23.8027C1154.86 23.8353 1155.03 23.8646 1155.24 23.8906C1155.45 23.9167 1155.66 23.9297 1155.88 23.9297C1156.29 23.9297 1156.65 23.8483 1156.95 23.6855C1157.25 23.5228 1157.5 23.2917 1157.71 22.9922C1157.92 22.6992 1158.09 22.3639 1158.23 21.9863L1158.61 20.9707L1154.29 10.1895ZM1176.07 10.1895V21H1173.75V12.0059H1168.93V21H1166.62V10.1895H1176.07ZM1188.8 10.1895V21H1186.49V12.0059H1181.66V21H1179.36V10.1895H1188.8ZM1196.33 9.98438C1197.7 9.98438 1198.73 10.2871 1199.43 10.8926C1200.13 11.498 1200.48 12.4421 1200.48 13.7246V21H1198.85L1198.41 19.4668H1198.33C1198.03 19.8574 1197.71 20.1797 1197.39 20.4336C1197.06 20.6875 1196.68 20.8763 1196.25 21C1195.83 21.1302 1195.31 21.1953 1194.7 21.1953C1194.06 21.1953 1193.48 21.0781 1192.97 20.8438C1192.46 20.6029 1192.06 20.2383 1191.77 19.75C1191.48 19.2617 1191.33 18.6432 1191.33 17.8945C1191.33 16.7812 1191.75 15.9447 1192.57 15.3848C1193.41 14.8249 1194.66 14.5156 1196.34 14.457L1198.22 14.3887V13.8223C1198.22 13.0736 1198.04 12.5397 1197.69 12.2207C1197.34 11.9017 1196.86 11.7422 1196.22 11.7422C1195.68 11.7422 1195.16 11.8203 1194.65 11.9766C1194.14 12.1328 1193.65 12.3249 1193.17 12.5527L1192.43 10.9316C1192.95 10.6517 1193.55 10.4238 1194.22 10.248C1194.9 10.0723 1195.6 9.98438 1196.33 9.98438ZM1198.21 15.834L1196.81 15.8828C1195.66 15.9219 1194.86 16.1172 1194.4 16.4688C1193.94 16.8203 1193.71 17.3021 1193.71 17.9141C1193.71 18.4479 1193.86 18.8385 1194.18 19.0859C1194.5 19.3268 1194.92 19.4473 1195.44 19.4473C1196.24 19.4473 1196.9 19.2227 1197.42 18.7734C1197.94 18.3177 1198.21 17.6504 1198.21 16.7715V15.834Z" fill="#4E3000"/>
<path d="M1790.88 21V6.72266H1801.84V21H1799.52V8.71484H1793.22V21H1790.88ZM1810.93 9.98438C1812.22 9.98438 1813.24 10.4531 1814.02 11.3906C1814.8 12.3281 1815.19 13.7214 1815.19 15.5703C1815.19 16.7943 1815.01 17.8262 1814.64 18.666C1814.29 19.4993 1813.78 20.1309 1813.13 20.5605C1812.49 20.9837 1811.73 21.1953 1810.88 21.1953C1810.33 21.1953 1809.85 21.1237 1809.45 20.9805C1809.05 20.8372 1808.7 20.6517 1808.41 20.4238C1808.13 20.1895 1807.89 19.9355 1807.69 19.6621H1807.55C1807.59 19.9225 1807.62 20.2122 1807.64 20.5312C1807.68 20.8438 1807.69 21.1302 1807.69 21.3906V25.7949H1805.39V10.1895H1807.26L1807.58 11.6836H1807.69C1807.89 11.3776 1808.14 11.0944 1808.42 10.834C1808.72 10.5736 1809.07 10.3685 1809.48 10.2188C1809.9 10.0625 1810.38 9.98438 1810.93 9.98438ZM1810.32 11.8594C1809.69 11.8594 1809.18 11.9863 1808.79 12.2402C1808.42 12.4876 1808.14 12.862 1807.96 13.3633C1807.8 13.8646 1807.7 14.4928 1807.69 15.248V15.5703C1807.69 16.3711 1807.77 17.0514 1807.94 17.6113C1808.1 18.1647 1808.38 18.5879 1808.77 18.8809C1809.16 19.1673 1809.68 19.3105 1810.35 19.3105C1810.91 19.3105 1811.37 19.1576 1811.73 18.8516C1812.11 18.5456 1812.38 18.1094 1812.56 17.543C1812.75 16.9766 1812.84 16.3092 1812.84 15.541C1812.84 14.3757 1812.63 13.4707 1812.21 12.8262C1811.8 12.1816 1811.17 11.8594 1810.32 11.8594ZM1820.05 10.1895V15.707C1820.05 15.8828 1820.05 16.1074 1820.04 16.3809C1820.03 16.6478 1820.02 16.9277 1820 17.2207C1819.98 17.5072 1819.96 17.7708 1819.94 18.0117C1819.92 18.2526 1819.9 18.4316 1819.89 18.5488L1825.33 10.1895H1828.12V21H1825.92V15.541C1825.92 15.2546 1825.93 14.9225 1825.94 14.5449C1825.96 14.1673 1825.98 13.8027 1826 13.4512C1826.03 13.0996 1826.04 12.8327 1826.05 12.6504L1820.63 21H1817.85V10.1895H1820.05ZM1835.78 21.1953C1834.76 21.1953 1833.87 20.9967 1833.12 20.5996C1832.37 20.2025 1831.8 19.5938 1831.39 18.7734C1830.99 17.9531 1830.79 16.9115 1830.79 15.6484C1830.79 14.3333 1831.01 13.2591 1831.45 12.4258C1831.89 11.5924 1832.51 10.9772 1833.29 10.5801C1834.07 10.1829 1834.98 9.98438 1835.99 9.98438C1836.64 9.98438 1837.22 10.0495 1837.74 10.1797C1838.27 10.3034 1838.71 10.4564 1839.08 10.6387L1838.39 12.4746C1838 12.3118 1837.59 12.1751 1837.17 12.0645C1836.76 11.9538 1836.36 11.8984 1835.97 11.8984C1835.34 11.8984 1834.81 12.0384 1834.39 12.3184C1833.97 12.5983 1833.66 13.015 1833.45 13.5684C1833.25 14.1217 1833.15 14.8086 1833.15 15.6289C1833.15 16.4232 1833.25 17.0938 1833.46 17.6406C1833.67 18.181 1833.98 18.5911 1834.39 18.8711C1834.8 19.1445 1835.31 19.2812 1835.9 19.2812C1836.5 19.2812 1837.03 19.2096 1837.5 19.0664C1837.96 18.9232 1838.41 18.7376 1838.82 18.5098V20.502C1838.41 20.7363 1837.97 20.9089 1837.51 21.0195C1837.04 21.1367 1836.46 21.1953 1835.78 21.1953ZM1839.73 10.1895H1842.23L1844.45 16.3613C1844.55 16.6413 1844.63 16.918 1844.71 17.1914C1844.8 17.4583 1844.87 17.722 1844.93 17.9824C1844.99 18.2428 1845.04 18.5033 1845.08 18.7637H1845.14C1845.21 18.4251 1845.3 18.0475 1845.42 17.6309C1845.54 17.2077 1845.68 16.7845 1845.83 16.3613L1847.96 10.1895H1850.43L1845.79 22.4844C1845.52 23.1875 1845.19 23.7865 1844.8 24.2812C1844.42 24.7826 1843.96 25.1602 1843.43 25.4141C1842.91 25.6745 1842.3 25.8047 1841.63 25.8047C1841.3 25.8047 1841.02 25.7852 1840.78 25.7461C1840.54 25.7135 1840.33 25.6777 1840.16 25.6387V23.8027C1840.3 23.8353 1840.47 23.8646 1840.68 23.8906C1840.89 23.9167 1841.1 23.9297 1841.32 23.9297C1841.73 23.9297 1842.09 23.8483 1842.39 23.6855C1842.69 23.5228 1842.94 23.2917 1843.15 22.9922C1843.36 22.6992 1843.53 22.3639 1843.67 21.9863L1844.05 20.9707L1839.73 10.1895ZM1860.23 11.9961H1856.68V21H1854.39V11.9961H1850.86V10.1895H1860.23V11.9961ZM1866.68 21.1953C1865.65 21.1953 1864.77 20.9967 1864.02 20.5996C1863.27 20.2025 1862.69 19.5938 1862.29 18.7734C1861.89 17.9531 1861.69 16.9115 1861.69 15.6484C1861.69 14.3333 1861.91 13.2591 1862.35 12.4258C1862.79 11.5924 1863.4 10.9772 1864.19 10.5801C1864.97 10.1829 1865.88 9.98438 1866.89 9.98438C1867.54 9.98438 1868.12 10.0495 1868.64 10.1797C1869.17 10.3034 1869.61 10.4564 1869.98 10.6387L1869.29 12.4746C1868.9 12.3118 1868.49 12.1751 1868.07 12.0645C1867.66 11.9538 1867.26 11.8984 1866.87 11.8984C1866.24 11.8984 1865.71 12.0384 1865.29 12.3184C1864.87 12.5983 1864.56 13.015 1864.35 13.5684C1864.15 14.1217 1864.05 14.8086 1864.05 15.6289C1864.05 16.4232 1864.15 17.0938 1864.36 17.6406C1864.57 18.181 1864.88 18.5911 1865.29 18.8711C1865.7 19.1445 1866.2 19.2812 1866.8 19.2812C1867.4 19.2812 1867.93 19.2096 1868.39 19.0664C1868.86 18.9232 1869.31 18.7376 1869.72 18.5098V20.502C1869.31 20.7363 1868.87 20.9089 1868.4 21.0195C1867.94 21.1367 1867.36 21.1953 1866.68 21.1953ZM1881.35 12.9629C1881.35 13.5879 1881.16 14.099 1880.78 14.4961C1880.4 14.8867 1879.88 15.1439 1879.21 15.2676V15.3457C1879.92 15.4368 1880.52 15.6875 1880.99 16.0977C1881.47 16.5078 1881.71 17.0775 1881.71 17.8066C1881.71 18.4251 1881.55 18.9753 1881.24 19.457C1880.93 19.9323 1880.44 20.3099 1879.77 20.5898C1879.11 20.8633 1878.24 21 1877.16 21H1872.26V10.1895H1877.14C1877.95 10.1895 1878.67 10.2773 1879.3 10.4531C1879.94 10.6289 1880.44 10.9186 1880.81 11.3223C1881.17 11.7259 1881.35 12.2728 1881.35 12.9629ZM1879.31 17.7285C1879.31 17.1947 1879.11 16.8105 1878.7 16.5762C1878.29 16.3418 1877.7 16.2246 1876.92 16.2246H1874.57V19.3105H1876.97C1877.7 19.3105 1878.27 19.1901 1878.69 18.9492C1879.1 18.7018 1879.31 18.2949 1879.31 17.7285ZM1879.02 13.168C1879.02 12.7448 1878.86 12.4323 1878.54 12.2305C1878.22 12.0221 1877.72 11.918 1877.04 11.918H1874.57V14.5352H1876.72C1877.48 14.5352 1878.05 14.4277 1878.43 14.2129C1878.82 13.9915 1879.02 13.6432 1879.02 13.168ZM1886.5 10.1895V15.707C1886.5 15.8828 1886.49 16.1074 1886.48 16.3809C1886.47 16.6478 1886.46 16.9277 1886.44 17.2207C1886.42 17.5072 1886.4 17.7708 1886.38 18.0117C1886.36 18.2526 1886.35 18.4316 1886.33 18.5488L1891.77 10.1895H1894.57V21H1892.37V15.541C1892.37 15.2546 1892.38 14.9225 1892.39 14.5449C1892.41 14.1673 1892.43 13.8027 1892.45 13.4512C1892.47 13.0996 1892.49 12.8327 1892.5 12.6504L1887.08 21H1884.29V10.1895H1886.5ZM1902.17 9.98438C1903.14 9.98438 1903.96 10.1829 1904.65 10.5801C1905.34 10.9772 1905.88 11.5404 1906.25 12.2695C1906.62 12.9987 1906.8 13.8711 1906.8 14.8867V16.1172H1899.59C1899.61 17.1654 1899.89 17.9727 1900.43 18.5391C1900.97 19.1055 1901.72 19.3887 1902.69 19.3887C1903.38 19.3887 1904 19.3236 1904.55 19.1934C1905.1 19.0566 1905.67 18.8581 1906.26 18.5977V20.4629C1905.72 20.7168 1905.17 20.9023 1904.61 21.0195C1904.05 21.1367 1903.38 21.1953 1902.59 21.1953C1901.53 21.1953 1900.6 20.9902 1899.79 20.5801C1898.99 20.1634 1898.36 19.5449 1897.91 18.7246C1897.46 17.9043 1897.23 16.8854 1897.23 15.668C1897.23 14.457 1897.44 13.4284 1897.85 12.582C1898.26 11.7357 1898.83 11.0911 1899.58 10.6484C1900.32 10.2057 1901.18 9.98438 1902.17 9.98438ZM1902.17 11.7129C1901.45 11.7129 1900.87 11.9473 1900.42 12.416C1899.97 12.8848 1899.71 13.5716 1899.63 14.4766H1904.56C1904.55 13.9362 1904.46 13.4577 1904.28 13.041C1904.11 12.6243 1903.85 12.2988 1903.5 12.0645C1903.16 11.8301 1902.71 11.7129 1902.17 11.7129Z" fill="#4E3000"/>
</svg>
